# xmcd
#
# Track frame offsets: 
#        150
#        17025
#        35926
#        51813
#        74964
#        89670
#        104561
#        125426
#        141477
#
# Disc length: 2168 seconds
#
# Revision: 0
# Processed by: cddbd v1.5.2PL0 Copyright (c) Steve Scherf et al.
# Submitted via: ExactAudioCopyFreeDBPlugin 1.0
#
DISCID=93087609
DTITLE=Tua and Vasee - (R)EVILGILA (Kosmos-Version)
DYEAR=2016
DGENRE=R&B
TTITLE0=Tua, Audhentik, Cop Dickie Remix - Szene in der Wüste (Audhent
TTITLE0=ik and Cop Dickie Remix)
TTITLE1=Tua &Vasee, Supersuper - Die Stadt (Supersuper Remix)
TTITLE2=Wer ich sein will (Tua Reprise)
TTITLE3=Tua and Vasee, London Nebel - Bei dir (London Nebel Remix)
TTITLE4=Tua - Die Violine
TTITLE5=Tua and Vasee, Portformat - Der Passant (Portformat Remix)
TTITLE6=Tua - Noises
TTITLE7=Schlaflos (Bonustrack)
TTITLE8=Schnee im August (Bonustrack
EXTD=
EXTT0=
EXTT1=
EXTT2=
EXTT3=
EXTT4=
EXTT5=
EXTT6=
EXTT7=
EXTT8=
PLAYORDER=
